<svg width="48" height="48" xmlns="http://www.w3.org/2000/svg">

 <g>
  <title>background</title>
  <rect fill="none" id="canvas_background" height="402" width="582" y="-1" x="-1"/>
 </g>
 <g>
  <title>Layer 1</title>
  <path fill="#4a2715" id="svg_1" d="m46.7,45.3l-13.3,-13.3c2.9,-3.2 4.6,-7.4 4.6,-12c0,-9.9 -8.1,-18 -18,-18c-9.9,0 -18,8.1 -18,18c0,9.9 8.1,18 18,18c4.6,0 8.8,-1.8 12,-4.6l13.3,13.3l1.4,-1.4zm-42.7,-25.3c0,-8.8 7.2,-16 16,-16s16,7.2 16,16s-7.2,16 -16,16s-16,-7.2 -16,-16z"/>
 </g>
</svg>